<svg width="166" height="44" viewBox="0 0 166 44" fill="none" xmlns="http://www.w3.org/2000/svg">
<path d="M18.4062 17.0781C19.6172 17.7422 20.5742 18.6471 21.2773 19.793C21.9935 20.9388 22.3516 22.0911 22.3516 23.25C22.3516 26.1146 20.6003 28.4453 17.0977 30.2422C13.5951 32.026 8.76432 32.918 2.60547 32.918C1.8112 32.918 1.15365 32.6055 0.632812 31.9805C0.125 31.3424 -0.0703125 30.6393 0.046875 29.8711L3.32812 9.16797C3.34115 9.11589 3.40625 8.51693 3.52344 7.37109C3.74479 5.26172 4.0638 3.88802 4.48047 3.25C4.89714 2.61198 5.89323 2.13021 7.46875 1.80469C9.05729 1.47917 10.8737 1.31641 12.918 1.31641C15.4049 1.31641 17.638 2.10417 19.6172 3.67969C21.5964 5.24219 22.5859 7.13672 22.5859 9.36328C22.5859 12.4883 21.1927 15.0599 18.4062 17.0781ZM12.0781 6.60938H10.0469C9.55208 6.60938 9.21354 6.6224 9.03125 6.64844L8.40625 10.8086L7.72266 14.8711C8.58203 15.0013 9.29818 15.0664 9.87109 15.0664C11.9284 15.0664 13.6406 14.6172 15.0078 13.7188C16.388 12.8203 17.0781 11.668 17.0781 10.2617C17.0781 9.3763 16.5638 8.54948 15.5352 7.78125C14.5065 7 13.3542 6.60938 12.0781 6.60938ZM6.88281 20.2812L5.71094 27.6055C9.17448 27.3971 11.9154 27.0065 13.9336 26.4336C15.9518 25.8607 16.9609 24.9948 16.9609 23.8359C16.9609 22.8594 16.3229 22.0456 15.0469 21.3945C13.7708 20.7305 12.8073 20.3984 12.1562 20.3984C10.9974 20.3984 9.23958 20.3594 6.88281 20.2812ZM42.8008 17.918C42.6966 18.6602 42.3776 19.3503 41.8438 19.9883C41.3229 20.6133 40.5742 20.9258 39.5977 20.9258C38.2174 20.9258 37.5273 20.3008 37.5273 19.0508C37.5273 18.8424 37.5469 18.6146 37.5859 18.3672L37.7617 16.3945C34.7799 16.8503 32.4427 18.3607 30.75 20.9258L29.2266 30.7109C29.1094 31.4401 28.7643 32.0586 28.1914 32.5664C27.6185 33.0742 26.9284 33.3281 26.1211 33.3281C25.3919 33.3281 24.8385 33.0807 24.4609 32.5859C24.0833 32.1042 23.9531 31.4792 24.0703 30.7109L26.082 17.918L26.5703 15.125C26.7135 14.2135 26.8828 13.5625 27.0781 13.1719C27.2865 12.7812 27.612 12.4492 28.0547 12.1758C28.5104 11.9023 29.0378 11.7656 29.6367 11.7656C31.0951 11.7656 31.8438 12.5078 31.8828 13.9922C34.4609 12.2604 37.1497 11.3945 39.9492 11.3945C42.0846 11.3945 43.1523 12.5729 43.1523 14.9297C43.1523 15.4375 43.1003 15.9974 42.9961 16.6094L42.8008 17.918ZM56.1797 31.3164C53.6146 32.4883 51.694 33.0742 50.418 33.0742C45.0534 33.0742 42.3711 30.6068 42.3711 25.6719C42.3711 21.5703 43.8034 18.2044 46.668 15.5742C49.5326 12.931 52.7031 11.6094 56.1797 11.6094C57.4557 11.6094 58.875 11.987 60.4375 12.7422C62.013 13.4844 62.8008 14.3307 62.8008 15.2812C62.8008 15.8672 62.5924 16.388 62.1758 16.8438C61.7331 17.8854 61.3555 19.3958 61.043 21.375C60.7435 23.3542 60.5938 24.8385 60.5938 25.8281C60.5938 26.401 60.6328 26.8047 60.7109 27.0391L61.2969 28.9531C61.5964 29.9688 61.7461 30.5938 61.7461 30.8281C61.7461 31.3229 61.4531 31.8568 60.8672 32.4297C60.2812 33.0026 59.5586 33.2891 58.6992 33.2891C58.1393 33.2891 57.2995 32.6315 56.1797 31.3164ZM56.8633 16.6484C56.4727 16.401 56.1016 16.2773 55.75 16.2773C53.8099 16.2773 52.013 17.0977 50.3594 18.7383C48.7057 20.3659 47.8789 22.4492 47.8789 24.9883C47.8789 27.293 48.888 28.4453 50.9062 28.4453C52.5469 28.4453 54.0768 27.9115 55.4961 26.8438C55.6393 21.9219 56.0951 18.5234 56.8633 16.6484ZM78.4062 31.3164C75.8411 32.4883 73.9206 33.0742 72.6445 33.0742C67.2799 33.0742 64.5977 30.6068 64.5977 25.6719C64.5977 21.5703 66.0299 18.2044 68.8945 15.5742C71.7591 12.931 74.9297 11.6094 78.4062 11.6094C79.6823 11.6094 81.1016 11.987 82.6641 12.7422C84.2396 13.4844 85.0273 14.3307 85.0273 15.2812C85.0273 15.8672 84.819 16.388 84.4023 16.8438C83.9596 17.8854 83.582 19.3958 83.2695 21.375C82.9701 23.3542 82.8203 24.8385 82.8203 25.8281C82.8203 26.401 82.8594 26.8047 82.9375 27.0391L83.5234 28.9531C83.8229 29.9688 83.9727 30.5938 83.9727 30.8281C83.9727 31.3229 83.6797 31.8568 83.0938 32.4297C82.5078 33.0026 81.7852 33.2891 80.9258 33.2891C80.3659 33.2891 79.526 32.6315 78.4062 31.3164ZM79.0898 16.6484C78.6992 16.401 78.3281 16.2773 77.9766 16.2773C76.0365 16.2773 74.2396 17.0977 72.5859 18.7383C70.9323 20.3659 70.1055 22.4492 70.1055 24.9883C70.1055 27.293 71.1146 28.4453 73.1328 28.4453C74.7734 28.4453 76.3034 27.9115 77.7227 26.8438C77.8659 21.9219 78.3216 18.5234 79.0898 16.6484ZM95.9258 13.9531C98.1263 12.0391 100.275 11.082 102.371 11.082C105.652 11.082 107.293 12.9701 107.293 16.7461C107.293 17.7747 107.182 18.9792 106.961 20.3594L106.727 21.7656C106.401 23.7188 106.238 25.4505 106.238 26.9609C106.238 28.7318 106.193 29.9818 106.102 30.7109C106.01 31.4271 105.672 32.0521 105.086 32.5859C104.513 33.1328 103.823 33.4062 103.016 33.4062C101.466 33.4062 100.691 32.6576 100.691 31.1602C100.691 27.8659 100.789 25.4505 100.984 23.9141C101.18 22.3646 101.505 20.6458 101.961 18.7578C102.143 18.0286 102.234 17.5143 102.234 17.2148C102.234 16.5638 102.013 16.2383 101.57 16.2383C100.333 16.2383 99.0182 16.974 97.625 18.4453C96.2318 19.9036 95.1771 21.401 94.4609 22.9375C93.7578 24.4609 93.3281 26.401 93.1719 28.7578C93.1198 29.8906 93.0156 30.6784 92.8594 31.1211C92.7031 31.5508 92.3581 31.9609 91.8242 32.3516C91.3034 32.7552 90.6719 32.957 89.9297 32.957C89.2526 32.957 88.6927 32.7617 88.25 32.3711C87.8203 31.9805 87.6055 31.4792 87.6055 30.8672L87.7617 28.7578C87.8659 27.3255 88.2826 25.0469 89.0117 21.9219C89.7148 19.0312 90.1185 17.0326 90.2227 15.9258C90.3268 14.7018 90.431 13.7643 90.5352 13.1133C90.6523 12.4622 91.0039 11.8958 91.5898 11.4141C92.1888 10.9193 92.8854 10.6719 93.6797 10.6719C95.3724 10.6719 96.1211 11.6875 95.9258 13.7188V13.9531ZM125.984 12.3516C126.974 7.54688 127.677 4.4349 128.094 3.01562C128.523 1.59635 129.487 0.886719 130.984 0.886719C132.456 0.886719 133.191 1.58984 133.191 2.99609C133.191 3.6862 132.579 6.64844 131.355 11.8828C130.327 16.2057 129.598 19.9232 129.168 23.0352C128.751 26.1341 128.543 28.2044 128.543 29.2461C128.543 29.8711 128.491 30.3659 128.387 30.7305C128.283 31.0951 127.951 31.4987 127.391 31.9414C126.844 32.3841 126.232 32.6055 125.555 32.6055C124.578 32.6055 123.921 32.1628 123.582 31.2773C121.681 32.3451 119.695 32.8789 117.625 32.8789C114.891 32.8789 112.749 32.0846 111.199 30.4961C109.65 28.9076 108.875 26.9805 108.875 24.7148C108.875 21.3164 110.04 18.2044 112.371 15.3789C114.715 12.5404 117.788 11.1211 121.59 11.1211C123.517 11.1211 124.982 11.5312 125.984 12.3516ZM124.637 18.5234C124.038 16.8958 122.794 16.082 120.906 16.082C118.484 16.082 116.72 16.9089 115.613 18.5625C114.52 20.2161 113.973 21.8828 113.973 23.5625C113.973 24.7865 114.402 25.8151 115.262 26.6484C116.134 27.4688 117.189 27.8789 118.426 27.8789C120.132 27.8789 121.824 27.1432 123.504 25.6719C123.504 25.2161 123.882 22.8333 124.637 18.5234ZM138.895 29.1289C138.504 31.6029 137.41 32.8398 135.613 32.8398C134.845 32.8398 134.24 32.599 133.797 32.1172C133.354 31.6354 133.198 30.9974 133.328 30.2031L137.625 3.15234C137.742 2.39714 138.107 1.79167 138.719 1.33594C139.344 0.867188 140.027 0.632812 140.77 0.632812C141.551 0.632812 142.143 0.873698 142.547 1.35547C142.964 1.82422 143.12 2.42318 143.016 3.15234L138.895 29.1289ZM149.949 30.0078C149.324 27.9766 147.729 23.8164 145.164 17.5273C144.474 16.2122 144.129 15.2812 144.129 14.7344C144.129 14.0182 144.467 13.3411 145.145 12.7031C145.822 12.0521 146.557 11.7266 147.352 11.7266C147.938 11.7266 148.432 11.8893 148.836 12.2148C149.24 12.5273 149.943 13.7904 150.945 16.0039C151.948 18.2174 152.938 20.8151 153.914 23.7969C157.482 17.8984 159.728 14.4089 160.652 13.3281C161.59 12.2344 162.508 11.6875 163.406 11.6875C164.083 11.6875 164.656 11.9023 165.125 12.332C165.594 12.7617 165.828 13.2695 165.828 13.8555C165.828 14.3372 165.652 14.8711 165.301 15.457C164.962 16.0299 161.98 20.6914 156.355 29.4414C153.686 33.4779 151.701 36.7852 150.398 39.3633C149.487 41.1732 148.816 42.2865 148.387 42.7031C147.957 43.1198 147.345 43.3281 146.551 43.3281C145.848 43.3281 145.262 43.1133 144.793 42.6836C144.337 42.2539 144.109 41.7461 144.109 41.1602C144.109 40.0273 146.056 36.3099 149.949 30.0078Z" fill="#FFC503"/>
</svg>
